<svg id="svg" version="1.1" width="400" height="116.47254575707156" viewBox="0 0 400 116.47254575707156" xmlns="http://www.w3.org/2000/svg" xmlns:xlink="http://www.w3.org/1999/xlink" ><g id="svgg"><path id="path0" d="" stroke="none" fill="#000000" fill-rule="evenodd"></path><path id="path1" d="" stroke="none" fill="#550000" fill-rule="evenodd"></path><path id="path2" d="M87.582 60.333 C 87.582 81.646,87.601 90.365,87.625 79.708 C 87.649 69.052,87.649 51.615,87.625 40.958 C 87.601 30.302,87.582 39.021,87.582 60.333 M32.458 25.792 C 37.890 25.816,46.777 25.816,52.208 25.792 C 57.640 25.767,53.196 25.747,42.333 25.747 C 31.471 25.747,27.027 25.767,32.458 25.792 M117.781 25.791 C 119.356 25.819,121.981 25.819,123.614 25.791 C 125.247 25.764,123.958 25.742,120.750 25.742 C 117.542 25.742,116.206 25.764,117.781 25.791 M157.292 25.791 C 158.873 25.819,161.460 25.819,163.042 25.791 C 164.623 25.764,163.329 25.742,160.167 25.742 C 157.004 25.742,155.710 25.764,157.292 25.791 M339.958 25.792 C 343.831 25.817,350.169 25.817,354.042 25.792 C 357.915 25.767,354.746 25.746,347.000 25.746 C 339.254 25.746,336.085 25.767,339.958 25.792 " stroke="none" fill="#990000" fill-rule="evenodd"></path><path id="path3" d="M0.500 58.500 L 0.500 116.333 200.250 116.333 L 400.000 116.333 399.959 58.542 L 399.917 0.750 200.208 0.708 L 0.500 0.667 0.500 58.500 M397.333 58.000 L 397.333 114.000 200.167 114.000 L 3.000 114.000 3.000 58.000 L 3.000 2.000 200.167 2.000 L 397.333 2.000 397.333 58.000 M85.000 60.250 L 85.000 99.333 86.250 99.333 L 87.500 99.333 87.500 60.250 L 87.500 21.167 86.250 21.167 L 85.000 21.167 85.000 60.250 M190.611 21.278 C 190.550 21.339,190.500 38.926,190.500 60.361 L 190.500 99.333 191.750 99.333 L 193.000 99.333 193.000 60.250 L 193.000 21.167 191.861 21.167 C 191.235 21.167,190.672 21.217,190.611 21.278 M300.778 21.278 C 300.717 21.339,300.667 39.451,300.667 61.528 L 300.667 101.667 301.899 101.667 C 302.872 101.667,303.152 101.611,303.233 101.401 C 303.499 100.707,303.337 21.370,303.068 21.267 C 302.713 21.131,300.916 21.139,300.778 21.278 M21.518 26.261 C 20.640 26.999,20.669 25.882,20.668 59.836 C 20.667 95.608,20.558 92.548,21.847 93.208 C 22.619 93.603,61.786 93.666,62.714 93.273 C 63.919 92.763,63.911 92.795,63.966 87.870 C 64.019 83.164,63.978 82.851,63.223 82.141 L 62.807 81.750 48.195 81.667 L 33.583 81.583 33.540 73.292 L 33.497 65.000 45.790 64.995 C 58.872 64.989,58.294 65.025,58.883 64.171 C 59.342 63.505,59.307 54.799,58.842 54.095 C 58.215 53.142,58.740 53.179,45.625 53.173 L 33.500 53.167 33.500 45.417 L 33.500 37.667 47.792 37.654 C 64.532 37.640,63.195 37.746,63.773 36.380 C 64.170 35.444,64.094 27.670,63.680 26.860 C 63.126 25.774,64.374 25.833,42.255 25.833 L 22.026 25.833 21.518 26.261 M114.231 25.997 C 113.243 26.396,112.844 27.878,113.500 28.712 C 113.683 28.945,113.833 29.187,113.833 29.250 C 113.833 29.349,114.156 29.848,115.527 31.868 C 115.695 32.117,115.833 32.354,115.833 32.396 C 115.833 32.438,116.199 33.022,116.646 33.694 C 117.797 35.427,119.068 37.387,119.166 37.583 C 119.212 37.675,119.371 37.938,119.518 38.167 C 119.956 38.846,123.155 43.847,124.448 45.873 C 125.107 46.905,126.127 48.500,126.716 49.417 C 127.304 50.333,128.134 51.627,128.560 52.292 C 128.985 52.956,129.689 54.044,130.124 54.708 C 130.559 55.373,130.990 56.044,131.082 56.201 C 131.174 56.357,131.570 57.001,131.962 57.633 C 132.780 58.954,132.837 58.666,131.282 61.083 C 130.348 62.535,129.025 64.636,127.084 67.750 C 126.570 68.575,125.671 70.000,125.088 70.917 C 123.983 72.651,122.296 75.340,121.951 75.917 C 121.841 76.100,121.582 76.489,121.375 76.781 C 121.169 77.072,121.000 77.351,121.000 77.401 C 121.000 77.450,120.785 77.811,120.521 78.203 C 120.258 78.596,119.572 79.667,118.996 80.583 C 118.421 81.500,117.680 82.677,117.350 83.199 C 117.020 83.720,116.300 84.869,115.750 85.752 C 114.265 88.136,113.835 88.814,113.110 89.917 C 111.921 91.725,112.362 93.144,114.198 93.417 C 116.106 93.700,125.783 93.431,126.169 93.083 C 126.568 92.724,128.074 90.463,128.917 88.957 C 129.158 88.525,134.784 79.403,135.417 78.417 C 135.711 77.958,136.091 77.358,136.261 77.083 C 137.127 75.681,138.815 72.935,139.516 71.786 C 140.443 70.268,140.109 70.065,142.200 73.417 C 142.944 74.608,143.791 75.958,144.082 76.417 C 144.619 77.261,145.691 78.980,146.052 79.576 C 146.161 79.755,146.704 80.617,147.259 81.492 C 147.814 82.367,148.709 83.796,149.247 84.667 C 149.786 85.537,150.494 86.662,150.822 87.167 C 151.149 87.671,151.492 88.212,151.583 88.370 C 152.722 90.327,154.488 93.017,154.750 93.193 C 155.186 93.485,166.128 93.617,167.112 93.341 C 169.010 92.810,168.872 91.834,166.324 87.797 C 165.183 85.989,163.950 84.023,163.583 83.427 C 163.217 82.832,161.883 80.711,160.619 78.714 C 159.355 76.717,158.230 74.937,158.119 74.758 C 158.008 74.578,157.505 73.791,157.002 73.008 C 156.499 72.224,156.004 71.433,155.901 71.250 C 155.799 71.067,155.255 70.204,154.692 69.333 C 154.130 68.462,153.403 67.300,153.078 66.750 C 152.752 66.200,152.113 65.188,151.659 64.500 C 151.204 63.813,150.781 63.137,150.719 63.000 C 150.657 62.862,150.480 62.563,150.325 62.333 C 149.792 61.540,148.880 60.081,148.490 59.395 L 148.099 58.706 148.940 57.395 C 149.402 56.673,149.924 55.867,150.099 55.603 C 150.274 55.339,150.492 55.001,150.585 54.853 C 150.800 54.507,152.240 52.299,152.858 51.367 C 153.119 50.972,153.333 50.621,153.333 50.585 C 153.333 50.550,153.918 49.635,154.633 48.552 C 155.348 47.469,156.192 46.176,156.508 45.677 C 156.825 45.179,157.704 43.829,158.462 42.677 C 159.220 41.526,159.915 40.433,160.006 40.250 C 160.096 40.067,160.451 39.489,160.793 38.967 C 161.136 38.445,162.167 36.851,163.083 35.426 C 164.000 34.000,165.103 32.290,165.534 31.625 C 167.988 27.844,168.085 27.580,167.406 26.543 C 166.968 25.875,166.539 25.833,160.114 25.836 C 153.463 25.838,153.342 25.853,152.846 26.698 C 152.702 26.944,152.058 27.991,151.417 29.025 C 150.775 30.058,150.212 30.981,150.167 31.077 C 150.121 31.172,149.802 31.683,149.458 32.212 C 149.115 32.740,148.833 33.213,148.833 33.262 C 148.833 33.311,148.545 33.779,148.192 34.301 C 147.839 34.823,147.520 35.332,147.484 35.431 C 147.447 35.531,147.020 36.243,146.535 37.015 C 145.046 39.382,141.991 44.355,141.306 45.525 C 140.363 47.135,140.327 47.146,139.693 46.034 C 139.395 45.511,138.968 44.783,138.743 44.417 C 138.519 44.050,138.053 43.276,137.709 42.697 C 136.697 40.995,136.670 40.950,136.170 40.167 C 135.907 39.754,135.254 38.676,134.721 37.770 C 134.187 36.865,133.600 35.886,133.417 35.594 C 133.233 35.302,132.865 34.693,132.599 34.240 C 132.332 33.787,131.873 33.042,131.579 32.583 C 131.285 32.125,130.803 31.337,130.509 30.833 C 128.399 27.217,128.011 26.627,127.501 26.251 L 126.935 25.833 120.759 25.844 C 117.363 25.850,114.425 25.918,114.231 25.997 M239.750 26.178 C 237.095 26.573,232.744 27.739,232.258 28.187 C 232.171 28.268,231.999 28.333,231.875 28.333 C 231.404 28.333,227.844 30.190,226.249 31.268 C 217.611 37.106,212.215 45.357,210.729 55.000 C 210.313 57.705,210.235 62.842,210.578 65.083 C 210.732 66.092,210.895 67.217,210.939 67.583 C 211.204 69.749,212.323 73.084,213.856 76.276 C 216.463 81.707,221.886 87.508,227.414 90.782 C 230.265 92.470,234.970 94.236,238.000 94.755 C 241.088 95.283,241.621 95.327,245.083 95.329 C 248.408 95.331,249.122 95.269,252.667 94.672 C 255.167 94.251,260.683 92.131,262.748 90.797 C 264.237 89.836,265.566 88.955,265.725 88.824 C 265.830 88.738,266.367 88.311,266.917 87.875 C 277.223 79.714,281.871 66.713,279.236 53.417 C 278.531 49.859,276.471 44.455,275.264 43.000 C 275.151 42.862,274.887 42.450,274.678 42.083 C 273.306 39.669,268.834 34.808,266.083 32.741 C 258.613 27.128,249.181 24.777,239.750 26.178 M331.932 26.151 C 330.942 26.812,331.000 24.734,331.000 59.702 C 331.000 95.790,330.888 92.739,332.231 93.252 C 332.829 93.480,333.648 93.512,337.812 93.468 L 342.693 93.417 343.263 92.794 L 343.833 92.172 343.833 79.586 L 343.833 67.000 349.066 67.000 L 354.299 67.000 356.620 71.625 C 367.433 93.174,367.319 92.955,367.928 93.244 C 368.833 93.674,379.542 93.558,380.200 93.111 C 381.541 92.201,381.390 91.711,377.710 85.032 C 377.322 84.327,376.743 83.250,376.423 82.638 C 376.104 82.026,375.680 81.239,375.481 80.888 C 375.282 80.537,374.843 79.725,374.505 79.083 C 373.625 77.413,372.675 75.664,372.333 75.083 C 372.171 74.808,371.718 73.983,371.328 73.250 C 370.937 72.517,370.375 71.467,370.079 70.917 C 369.783 70.367,369.088 69.071,368.535 68.038 L 367.530 66.158 368.119 65.913 C 368.443 65.777,368.742 65.667,368.784 65.667 C 369.542 65.667,374.141 62.402,375.920 60.601 C 383.008 53.426,383.728 42.123,377.602 34.197 C 377.377 33.905,373.851 30.381,373.500 30.096 C 371.474 28.453,368.731 27.181,365.167 26.230 C 363.377 25.753,332.638 25.680,331.932 26.151 M361.974 37.938 C 369.553 40.120,371.437 49.570,365.271 54.471 C 362.768 56.461,362.518 56.500,352.378 56.500 L 344.000 56.500 344.000 47.083 L 344.000 37.667 352.516 37.667 C 359.886 37.667,361.159 37.703,361.974 37.938 M249.440 39.012 C 252.765 39.654,255.938 41.144,258.750 43.384 C 259.636 44.090,262.667 47.167,262.667 47.361 C 262.667 47.424,262.760 47.575,262.875 47.696 C 263.547 48.406,264.863 50.685,265.479 52.205 C 269.285 61.591,266.543 71.851,258.580 78.012 C 257.120 79.141,256.378 79.667,256.241 79.667 C 256.182 79.667,255.936 79.802,255.692 79.968 C 248.676 84.754,236.564 83.042,229.686 76.291 C 222.753 69.488,221.017 57.853,225.783 50.128 C 225.994 49.786,226.167 49.465,226.167 49.414 C 226.167 49.175,228.261 46.508,229.248 45.490 C 231.155 43.524,232.466 42.498,234.867 41.096 C 238.549 38.946,244.607 38.079,249.440 39.012 " stroke="none" fill="#e51b23" fill-rule="evenodd"></path><path id="path4" d="M84.915 60.167 C 84.915 81.571,84.935 90.327,84.958 79.625 C 84.982 68.923,84.982 51.410,84.958 40.708 C 84.935 30.006,84.915 38.762,84.915 60.167 M361.294 25.785 C 361.501 25.824,361.801 25.823,361.960 25.781 C 362.120 25.739,361.950 25.707,361.583 25.709 C 361.217 25.711,361.086 25.745,361.294 25.785 M33.577 45.417 C 33.577 49.725,33.598 51.511,33.625 49.386 C 33.651 47.262,33.651 43.737,33.625 41.553 C 33.599 39.370,33.577 41.108,33.577 45.417 M267.042 58.750 C 267.044 59.117,267.078 59.247,267.118 59.040 C 267.158 58.832,267.156 58.532,267.115 58.373 C 267.073 58.214,267.040 58.383,267.042 58.750 M267.045 62.667 C 267.045 63.079,267.078 63.248,267.118 63.042 C 267.157 62.835,267.157 62.498,267.118 62.292 C 267.078 62.085,267.045 62.254,267.045 62.667 M33.581 73.292 L 33.583 81.583 47.958 81.585 L 62.333 81.586 48.002 81.542 L 33.670 81.498 33.624 73.249 L 33.579 65.000 33.581 73.292 M346.542 67.125 C 347.985 67.152,350.348 67.152,351.792 67.125 C 353.235 67.097,352.054 67.074,349.167 67.074 C 346.279 67.074,345.098 67.097,346.542 67.125 M112.870 92.922 C 113.119 93.184,113.353 93.365,113.390 93.324 C 113.426 93.284,113.222 93.069,112.936 92.848 L 112.417 92.445 112.870 92.922 M84.982 99.383 C 85.056 99.456,85.634 99.493,86.267 99.465 L 87.417 99.413 86.133 99.332 C 85.426 99.287,84.909 99.310,84.982 99.383 M191.208 99.455 C 191.552 99.491,192.115 99.491,192.458 99.455 C 192.802 99.419,192.521 99.389,191.833 99.389 C 191.146 99.389,190.865 99.419,191.208 99.455 " stroke="none" fill="#ff0000" fill-rule="evenodd"></path></g></svg>